<svg xmlns="http://www.w3.org/2000/svg" viewBox="0 0 163.57 49.55"><defs><style>.cls-1{fill:#313992;}.cls-2{fill:#007dc5;}</style></defs><g id="レイヤー_2" data-name="レイヤー 2"><g id="レイヤー_1-2" data-name="レイヤー 1"><polygon class="cls-1" points="10.51 0 0 5.53 36.28 5.53 25.78 0 10.51 0"/><polygon class="cls-1" points="10.51 49.55 0 44.02 36.28 44.02 25.78 49.55 10.51 49.55"/><rect class="cls-2" x="25.78" y="6.41" width="10.51" height="37.6"/><rect class="cls-2" y="6.41" width="10.51" height="37.6"/><path d="M60.5,40.06a2.7,2.7,0,0,1,3-2.64c1.83,0,2.94,1.07,2.94,2.51a2.76,2.76,0,0,1-3,2.76A2.68,2.68,0,0,1,60.5,40.06Zm4.89.13a2.16,2.16,0,0,0-2.08-2.42c-.82,0-1.73.4-1.73,2.06a2.23,2.23,0,0,0,2.17,2.49C64.26,42.32,65.39,42.12,65.39,40.19Z"/><path d="M69.09,39.88c.35-.29,1.16-1.13,1.54-1.52s.43-.49.43-.58,0-.09-.16-.13-.12,0-.12-.07,0-.07.11-.07c.27,0,.41,0,.75,0s.81,0,.92,0,.14,0,.14.07,0,.07-.11.07a1.85,1.85,0,0,0-.37.08,1.72,1.72,0,0,0-.85.52l-1.45,1.42c.37.46,1.63,1.72,2,2,.61.53.79.63,1,.69a1.25,1.25,0,0,0,.3.05c.11,0,.14,0,.14.07s0,.07-.13.07h-.66c-.85,0-1.12-.08-1.53-.46s-1.35-1.4-2-2.1v.61c0,.6,0,1.15,0,1.43s.09.33.29.36l.35,0a.08.08,0,0,1,.09.07s0,.07-.13.07l-1.11,0-1,0c-.1,0-.15,0-.15-.07s0-.07.13-.07l.23,0c.19,0,.22-.17.24-.37a13,13,0,0,0,0-1.42V39.46c0-1,0-1.19,0-1.41s-.08-.32-.31-.36l-.29,0c-.08,0-.12,0-.12-.07s0-.07.17-.07c.37,0,.88,0,1,0l1,0c.1,0,.15,0,.15.07s0,.07-.12.07l-.2,0c-.21,0-.27.16-.28.39s0,.36,0,1.39Z"/><path d="M74.38,40.93s0,0-.07.06l-.37.86a1.68,1.68,0,0,0-.11.41c0,.2.26.21.42.21s.13,0,.13.06-.06.07-.14.07l-.81,0-.89,0c-.09,0-.13,0-.13-.07s0-.07.1-.07c.52-.05.64-.14.83-.6l1.77-4c.15-.37.23-.52.32-.52s.11.07.2.24c.14.39,1.37,3.09,1.84,4.11.26.59.47.69.65.73h.27c.09,0,.13,0,.13.07s0,.07-.14.07c-.35,0-1.23,0-1.75,0-.08,0-.13,0-.13-.07s0,0,.08-.06.13-.05.08-.14L76.09,41a.06.06,0,0,0-.06,0Zm1.49-.39s0,0,0,0l-.65-1.62c0-.06,0-.08-.08,0l-.66,1.62s0,0,0,0Z"/><path d="M80.15,40.85a1.3,1.3,0,0,0-.18-.7c-.09-.18-1-1.58-1.28-1.94a1.4,1.4,0,0,0-.53-.48.87.87,0,0,0-.26-.08c-.06,0-.13,0-.13-.07s0-.07.13-.07l1,0c.14,0,.48,0,.83,0,.07,0,.11,0,.11.07s0,.06-.13.08-.15.06-.15.11a.42.42,0,0,0,.09.22c.1.21,1.1,1.8,1.22,2,.15-.28,1-1.6,1.08-1.82A.79.79,0,0,0,82,37.8c0-.06,0-.11-.18-.15s-.13,0-.13-.07,0-.07.13-.07c.26,0,.5,0,.72,0l.79,0c.09,0,.14,0,.14.07s-.05.07-.15.07a1.28,1.28,0,0,0-.31.08,1,1,0,0,0-.39.31,18.43,18.43,0,0,0-1.4,2.16,1.52,1.52,0,0,0-.11.66v.54c0,.11,0,.38,0,.66s.07.35.3.37.26,0,.37,0,.13,0,.13.07,0,.07-.14.07l-1.19,0-.95,0c-.11,0-.17,0-.17-.07s0-.06.12-.07a1.57,1.57,0,0,0,.24,0c.17,0,.24-.17.25-.36a6.56,6.56,0,0,0,0-.67Z"/><path d="M84.69,40.93s0,0-.06.06l-.37.86a1.32,1.32,0,0,0-.11.41c0,.2.26.21.42.21s.12,0,.12.06,0,.07-.13.07l-.81,0-.89,0c-.09,0-.13,0-.13-.07s0-.07.1-.07c.52-.05.64-.14.83-.6l1.77-4c.15-.37.23-.52.32-.52s.11.07.19.24c.15.39,1.38,3.09,1.85,4.11.26.59.47.69.65.73h.27c.09,0,.13,0,.13.07s0,.07-.15.07c-.35,0-1.22,0-1.75,0-.07,0-.12,0-.12-.07s0,0,.07-.06.14-.05.09-.14L86.41,41a.07.07,0,0,0-.07,0Zm1.5-.39s0,0,0,0l-.65-1.62c0-.06,0-.08-.08,0l-.66,1.62s0,0,0,0Z"/><path d="M95.26,41.73c.06.42.14.6.36.67a2.53,2.53,0,0,0,.45.06c.07,0,.12,0,.12.06s-.08.08-.19.08c-.27,0-1.2,0-1.59,0-.16,0-.21,0-.21-.07a.09.09,0,0,1,.08-.09c.06,0,.08-.08,0-.3l-.4-2.88-1.6,3c-.17.32-.21.38-.27.38s-.14-.13-.27-.35S91,41,90.9,40.73l-.74-1.44-.36,2.55a2.37,2.37,0,0,0,0,.35c0,.14.09.21.22.24l.31,0c.06,0,.11,0,.11.06s-.06.08-.17.08l-.81,0-.75,0c-.06,0-.12,0-.12-.08s0-.06.11-.06h.22c.22,0,.28-.29.32-.56l.71-4.32c0-.14.07-.2.13-.2s.11,0,.22.22l2,3.68,2-3.73c.08-.11.11-.17.18-.17s.11.07.14.22Z"/><path d="M97.72,40.93s0,0-.07.06l-.36.86a1.32,1.32,0,0,0-.11.41c0,.2.26.21.42.21s.12,0,.12.06-.06.07-.13.07l-.82,0-.88,0c-.09,0-.14,0-.14-.07s0-.07.1-.07c.53-.05.65-.14.84-.6l1.76-4c.15-.37.24-.52.33-.52s.11.07.19.24c.14.39,1.38,3.09,1.84,4.11.27.59.48.69.65.73h.28c.09,0,.12,0,.12.07s0,.07-.14.07c-.35,0-1.23,0-1.75,0-.07,0-.12,0-.12-.07s0,0,.07-.06.13-.05.08-.14L99.44,41a.08.08,0,0,0-.07,0Zm1.49-.39s0,0,0,0l-.64-1.62c0-.06,0-.08-.09,0l-.66,1.62s0,0,0,0Z"/><path d="M105.89,40.42c0,1,.2,1.38.58,1.65a1.61,1.61,0,0,0,1.85-.09,2.22,2.22,0,0,0,.41-1.68v-.84c0-1,0-1.18,0-1.39s-.06-.34-.3-.38a1.56,1.56,0,0,0-.27,0c-.08,0-.12,0-.12-.07s0-.07.15-.07c.38,0,.85,0,.87,0s.56,0,.86,0c.11,0,.16,0,.16.07s0,.07-.14.07a.86.86,0,0,0-.21,0c-.19,0-.25.13-.26.37s0,.39,0,1.4v.71a2.44,2.44,0,0,1-.7,2,2.4,2.4,0,0,1-1.53.47,2.58,2.58,0,0,1-1.65-.47,2.07,2.07,0,0,1-.66-1.77v-1c0-1,0-1.19,0-1.41s-.07-.32-.3-.36a2,2,0,0,0-.3,0c-.08,0-.13,0-.13-.07s.06-.07.18-.07c.37,0,.88,0,1.07,0l1,0c.12,0,.17,0,.17.07s0,.07-.13.07l-.22,0c-.2,0-.25.15-.26.38s0,.41,0,1.39Z"/><path d="M111.36,37.65c0-.15,0-.25.11-.25s.14.08.27.2,1.1,1.07,2.3,2.13c.54.49,1.47,1.39,1.6,1.5l-.06-2.93c0-.4-.07-.53-.27-.61a2.46,2.46,0,0,0-.37,0c-.1,0-.13,0-.13-.07s.08-.07.18-.07c.37,0,.75,0,.93,0s.39,0,.74,0c.09,0,.16,0,.16.07s0,.07-.13.07l-.2,0c-.22,0-.29.19-.3.57,0,1,0,2.78-.07,4.19,0,.18,0,.24-.11.24s-.2-.08-.36-.22c-.46-.4-1.36-1.22-2.05-1.85s-1.55-1.48-1.75-1.67l.08,2.75c0,.51.1.68.25.72a1.67,1.67,0,0,0,.39.05c.08,0,.12,0,.12.06s-.06.08-.16.08l-.92,0-.83,0c-.09,0-.16,0-.16-.07s0-.07.12-.07.21,0,.31,0,.25-.23.25-.82C111.32,40.19,111.36,38.53,111.36,37.65Z"/><path d="M118.45,39.46c0-1,0-1.19,0-1.41s-.09-.33-.25-.36l-.26,0c-.07,0-.11,0-.11-.07s0-.07.16-.07l1,0,.94,0c.1,0,.14,0,.14.07s0,.07-.11.07l-.2,0c-.2,0-.25.15-.27.38a11.11,11.11,0,0,0,0,1.4v1.19a12.65,12.65,0,0,0,0,1.43c0,.18.07.33.29.35l.31,0c.1,0,.13,0,.13.07s-.06.07-.14.07l-1.14,0-.94,0c-.1,0-.15,0-.15-.07s0-.07.13-.07l.22,0c.14,0,.21-.15.23-.34a13.58,13.58,0,0,0,0-1.45Z"/><path d="M121.21,38.2c-.18-.38-.3-.45-.56-.51a.91.91,0,0,0-.25,0c-.07,0-.1,0-.1-.07s.06-.07.17-.07c.39,0,.81,0,1.08,0s.57,0,1,0c.1,0,.16,0,.16.07s-.05.07-.12.07a1,1,0,0,0-.28.06.12.12,0,0,0-.08.13,1.83,1.83,0,0,0,.17.53c.39.94.87,2.07,1.24,3,.32-.72,1.24-2.79,1.44-3.27a.93.93,0,0,0,.06-.24.14.14,0,0,0-.11-.14l-.3,0c-.06,0-.12,0-.12-.07s0-.07.17-.07c.4,0,.74,0,.83,0l.71,0c.11,0,.16,0,.16.07s0,.07-.14.07a.82.82,0,0,0-.33.08c-.11.07-.22.19-.42.61-.28.62-.5,1-.9,1.83s-.8,1.69-1,2-.24.49-.34.49-.15-.09-.29-.4Z"/><path d="M127.29,39.46c0-1,0-1.21,0-1.43s-.08-.31-.3-.36a1.28,1.28,0,0,0-.29,0c-.08,0-.12,0-.12-.07s.05-.07.17-.07c.35,0,.68,0,1.05,0h1.88l.33,0,.12,0s0,0,0,.06a2.79,2.79,0,0,0-.07.43c0,.12,0,.26,0,.46,0,0,0,.12-.09.12s-.06,0-.07-.13a.53.53,0,0,0,0-.22c-.05-.13-.12-.2-.48-.24-.14,0-.89,0-1,0s-.06,0-.06.07v1.64c0,.05,0,.07.06.07h1.15a.56.56,0,0,0,.39-.11c.05-.06.08-.09.11-.09s0,0,0,.06,0,.2-.06.52c0,.14,0,.42,0,.48s0,.12-.08.12-.07-.07-.07-.11a1.68,1.68,0,0,0,0-.18c0-.15-.12-.25-.41-.28l-1,0c-.05,0-.06,0-.06.07v1.51c0,.46.13.57.9.57a2,2,0,0,0,.68-.08c.19-.09.27-.23.33-.51,0-.07,0-.11.09-.11s.06.06.06.13a4.86,4.86,0,0,1-.1.8c-.05.17-.11.17-.39.17-.72,0-1.35,0-2.09,0l-1,0c-.1,0-.15,0-.15-.07s0-.07.13-.07l.25,0c.15,0,.2-.18.22-.42s0-.79,0-1.37Z"/><path d="M132,39.46c0-1,0-1.18,0-1.39s-.09-.34-.31-.38l-.29,0c-.08,0-.12,0-.12-.07s0-.07.16-.07c.37,0,.88,0,1,0l1.07,0a2.66,2.66,0,0,1,1.37.28,1.15,1.15,0,0,1,.54.94c0,.51-.25,1-1,1.47.62.73,1.13,1.36,1.57,1.78a1.49,1.49,0,0,0,.81.47h.19c.06,0,.1,0,.1.06s-.05.08-.14.08h-.7a1.72,1.72,0,0,1-.9-.15,3.16,3.16,0,0,1-.95-1c-.3-.39-.61-.81-.72-.93a.15.15,0,0,0-.12,0l-.59,0a.06.06,0,0,0-.06.06v.14a12,12,0,0,0,0,1.36c0,.2.06.35.29.37s.25,0,.35,0,.09,0,.09.06-.05.08-.14.08l-1.13,0-.93,0c-.09,0-.14,0-.14-.07s0-.07.12-.07l.26,0c.14,0,.19-.18.21-.38a12.94,12.94,0,0,0,0-1.41ZM133,40c0,.07,0,.1.07.12a2,2,0,0,0,.56.07.84.84,0,0,0,.51-.11,1.12,1.12,0,0,0,.41-1,1.1,1.1,0,0,0-1.11-1.21,1.62,1.62,0,0,0-.38,0,.09.09,0,0,0-.06.1Z"/><path d="M137.11,42.52a.2.2,0,0,1-.14-.23c0-.41,0-.8,0-.92s0-.18.1-.18.07.06.08.11a1.32,1.32,0,0,0,0,.32,1,1,0,0,0,1.08.73c.67,0,1-.39,1-.74s-.1-.61-.72-1l-.35-.25c-.82-.6-1.09-1-1.09-1.6,0-.75.68-1.3,1.72-1.3a4.42,4.42,0,0,1,.74.07l.3,0a.07.07,0,0,1,.08.08c0,.11,0,.3,0,.84,0,.15,0,.21-.08.21s-.08-.05-.09-.14a1.12,1.12,0,0,0-.16-.42.92.92,0,0,0-.84-.36c-.55,0-.86.28-.86.67s.15.56.75.95l.23.15c.93.6,1.23,1.06,1.23,1.71a1.36,1.36,0,0,1-.71,1.19,2.33,2.33,0,0,1-1.19.27A3,3,0,0,1,137.11,42.52Z"/><path d="M141.78,39.46c0-1,0-1.19,0-1.41s-.09-.33-.25-.36l-.26,0c-.07,0-.11,0-.11-.07s.05-.07.16-.07l1,0,.94,0c.1,0,.14,0,.14.07s0,.07-.12.07l-.19,0c-.2,0-.26.15-.27.38a11.11,11.11,0,0,0,0,1.4v1.19c0,.63,0,1.15,0,1.43s.08.33.29.35l.32,0c.09,0,.13,0,.13.07s-.06.07-.15.07l-1.14,0-.93,0c-.1,0-.15,0-.15-.07s0-.07.12-.07l.23,0c.14,0,.21-.15.22-.34a10.88,10.88,0,0,0,.05-1.45Z"/><path d="M147.09,40.65c0,.6,0,1.13,0,1.42s.07.34.3.36.25,0,.35,0,.13,0,.13.06-.05.08-.15.08l-1.18,0-.95,0c-.1,0-.15,0-.15-.08s0-.06.12-.06l.25,0c.16,0,.2-.18.23-.37s0-.8,0-1.42V37.91c-.28,0-.82,0-1.16,0s-.55.06-.65.24-.06.14-.1.22,0,.08-.08.08-.07,0-.07-.12.14-.7.16-.79,0-.14.08-.14a3,3,0,0,0,.31.08c.2,0,.5,0,.75,0h2.95a4.16,4.16,0,0,0,.5,0l.21,0c.05,0,.06,0,.06.16s0,.63,0,.8,0,.11-.07.11-.07,0-.08-.13v-.09c0-.18-.2-.36-.81-.37-.2,0-.51,0-1,0Z"/><path d="M151.22,40.85a1.31,1.31,0,0,0-.17-.7c-.1-.18-1-1.58-1.29-1.94a1.46,1.46,0,0,0-.52-.48.92.92,0,0,0-.27-.08c-.06,0-.12,0-.12-.07s0-.07.12-.07l1,0c.15,0,.48,0,.83,0,.07,0,.12,0,.12.07s0,.06-.14.08-.15.06-.15.11a.53.53,0,0,0,.09.22c.1.21,1.1,1.8,1.22,2,.15-.28,1-1.6,1.08-1.82a.79.79,0,0,0,.11-.36c0-.06,0-.11-.17-.15s-.14,0-.14-.07,0-.07.14-.07c.26,0,.49,0,.71,0l.79,0c.09,0,.15,0,.15.07s-.06.07-.15.07a1.34,1.34,0,0,0-.32.08,1,1,0,0,0-.39.31,19.81,19.81,0,0,0-1.4,2.16,1.52,1.52,0,0,0-.11.66v.54c0,.11,0,.38,0,.66s.06.35.3.37.26,0,.36,0,.13,0,.13.07,0,.07-.13.07l-1.2,0-.95,0c-.1,0-.16,0-.16-.07s0-.06.11-.07a1.71,1.71,0,0,0,.25,0c.16,0,.24-.17.25-.36s0-.56,0-.67Z"/><path d="M73.29,9.11a1.42,1.42,0,0,0,.88-.28c.44-.39.67-.64.87-.64s2.2,1.05,2.2,1.64a.42.42,0,0,1-.15.3,2.47,2.47,0,0,0-.44.36A10.09,10.09,0,0,0,76.48,13c0,4.14,0,7.28,0,10.58,0,.86.15,5.36.15,5.49,0,1.84,0,2.42-.67,2.95a3.9,3.9,0,0,1-2,.64c-.41,0-.52-.09-.67-.37a4.39,4.39,0,0,0-2.43-1.77c-.4-.11-.43-.31-.43-.34s.14-.13.29-.13c.41,0,2.31.11,2.75.11s.75,0,.87-.34.12-4.49.12-5.21c0-1.12-.06-14-.09-14.24-.12-.5-.58-.5-.88-.5H56.28c-.81,0-.9.3-.9.89,0,2.19.12,12.24.12,13.87,0,.89.08,5.28.08,6.25a1.78,1.78,0,0,1-1.69,1.75c-.7,0-.7-.67-.7-.92,0-.05,0-.39,0-.83.14-3.78.17-10.24.17-14.41,0-3.38-.06-5.44-.2-7.13,0-.17-.12-1.08-.12-1.17s0-.22.15-.22a5,5,0,0,1,1.52.58,3.06,3.06,0,0,0,1.66.62ZM63.12,26.29a.79.79,0,0,0,.88-.48c.06-.16.12-2.19.12-4.24a30.36,30.36,0,0,0-.18-4.14c-.15-.33-.53-.33-1-.33-2,0-3,.06-3.42.08-.12,0-.53.06-.61.06s-.18-.06-.27-.17L58,16.43a.34.34,0,0,1-.12-.19c0-.06,0-.06.12-.06s1.11.09,1.28.09c1.35.05,2.63.11,4,.11h3.88c1.35,0,1.49,0,1.87-.47.7-.81.79-.92,1.11-.92.47,0,2.22,1.3,2.22,1.72s-.14.39-1.51.39H66.6a.7.7,0,0,0-.79.5c0,.22,0,3.39,0,3.91,0,.72,0,3.69,0,4.08,0,.7.5.7.88.7h1.4c.32,0,.91,0,.91-.78,0-1.08-.09-4.5-.12-4.72s-.12-.8-.12-.94,0-.25.24-.25,1.22.25,1.46.3c.82.2.9.22.9.45S71,20.93,71,21a16.8,16.8,0,0,0-.09,2.19c0,.45.12,3.56.12,4.22a1.38,1.38,0,0,1-1.34,1.28c-.65,0-.67-.39-.67-.69,0-.59,0-1-.91-1h-6.2c-.29,0-.84,0-.84.72s0,.72-.12.89a1.7,1.7,0,0,1-1.29.72c-.67,0-.67-.64-.67-.81,0-.36.09-1.94.09-2.25,0-.75.06-1.72.06-4.49a11.23,11.23,0,0,0-.06-1.2A5.09,5.09,0,0,1,59,20c0-.11,0-.17.18-.17s2.25.39,2.25.78c0,.14-.32.61-.32.72-.06.47-.06,3.19-.06,3.89s0,1.11.9,1.11ZM61.92,12a2.65,2.65,0,0,1,1.32,2.25c0,.77-.38,1.41-1.05,1.41-.44,0-.56-.39-.82-1.22A15.2,15.2,0,0,0,60,11.6c-.33-.5-.35-.55-.35-.69s.08-.17.2-.14A7.08,7.08,0,0,1,61.92,12Zm8.33-.22c0,.19-.9.55-1,.66-.5.37-3.13,3.67-3.62,3.67a.12.12,0,0,1-.12-.14c0-.2,1.9-4,2.19-4.78s.26-.77.38-.77S70.25,11.49,70.25,11.8Z"/><path d="M85.44,29.31c-.85,0-.85.53-.85,1,0,.81,0,1.69-1.37,1.69-.76,0-1-.3-1-1.11,0-2,.14-10.88.14-12.71a29.15,29.15,0,0,0-.17-3.69,8.94,8.94,0,0,1-.09-.89c0-.19,0-.25.26-.25s3,.53,3,1.11c0,.2-.09.28-.52.72-.24.2-.24,1.59-.24,2.11,0,1.64,0,8.86,0,10.33,0,.55.09,1,.85,1h5.9c.24,0,.73,0,.82-.55,0-.17.18-8.75.18-12.36,0-2.47-.06-5.6-.06-5.85s-.15-1.2-.15-1.39.06-.22.27-.22,1.51.25,1.84.3c.61.11,1,.17,1,.53,0,.17-.56.81-.61.94a3.05,3.05,0,0,0-.15,1.2c-.09,5.13-.09,11.74-.09,16.43,0,.72.24,1,.88,1h6c.82,0,.88-.44.88-1.11,0-1.08.05-5.94.05-6.91,0-2.39-.05-5.58-.08-5.91S102,13.49,102,13.3s.06-.25.23-.25,2.84.58,2.84,1.19c0,.11-.47.56-.5.64a16.91,16.91,0,0,0-.17,3c0,1.25.05,6.8.05,7.94,0,.67,0,3.64,0,4.22a1.42,1.42,0,0,1-1.49,1.55c-.84,0-.87-.61-.87-1.47,0-.44-.06-.86-.85-.86Z"/><path d="M114,17.07c-2.57,0-3.39.06-3.68.09l-.61.05c-.12,0-.18-.05-.27-.17l-.55-.63c-.12-.14-.15-.14-.15-.2s.06-.05.12-.05,1.11.08,1.29.08c1.43.05,2.63.11,4,.11h5.05c.91,0,1,0,1-3.91A35.67,35.67,0,0,0,120,8.61c0-.17-.11-.81-.11-.95s0-.22.17-.22a25.51,25.51,0,0,1,3,.64c.38.08.64.22.64.5s-.14.39-.46.64c-.56.44-.56.58-.62,1.88,0,.73-.23,3.94-.23,4.61s.52.64,1,.64h5.06c1.34,0,1.49,0,1.87-.47.93-1.14,1.05-1.25,1.4-1.25a7.52,7.52,0,0,1,3,2c0,.39-.58.39-1.55.39h-9.32c-.64,0-.85,0-.85.45,0,1.69,3.8,9.93,12.07,13,.79.31.79.31.79.42s-.15.22-.59.25a7.56,7.56,0,0,0-2.63.53,4.38,4.38,0,0,1-1,.5c-.53,0-3.13-2.22-4.67-4.33a27.12,27.12,0,0,1-4.56-9.41c0-.17-.15-.56-.21-.56s-.09.09-.2.67c-.59,3.11-1.67,8.88-9.21,12.88a13.26,13.26,0,0,1-4.35,1.5c-.06,0-.18,0-.18-.12s.65-.41.94-.55a18.59,18.59,0,0,0,10.17-11.82,19.64,19.64,0,0,0,.47-2.81c0-.61-.33-.61-.79-.61Z"/><path d="M158.22,14.55c1.14,0,1.49,0,1.87-.48s.38-.5.7-.5c.61,0,2.78,1.75,2.78,2.39,0,.31-.38.45-.59.45s-.91-.14-1-.14a5.12,5.12,0,0,0-3.07,1.38c-.23.17-.38.28-.53.28a.12.12,0,0,1-.11-.11c0-.3,1-1.91,1-2.16s-.38-.39-.79-.39H141.12c-.52,0-.79,0-.93.55-.38,1.28-.73,2.69-1.9,2.69a1.08,1.08,0,0,1-1.08-1.08c0-.58.14-.77,1-2a4,4,0,0,0,.85-2.22c0-.08.08-.3.23-.3s.5.5.82,1.22c.17.39.55.39.85.39Zm-9.85,9.88c.35,0,.91,0,.91-.73a9.47,9.47,0,0,0-.09-1.3c-.09-.42-.21-1-.21-1.08s0-.45.33-.45,1.49.37,1.75.37c.64,0,2.86-2.06,2.86-2.36s-.14-.2-.55-.2H146.5c-.7,0-2.69,0-3.68.08-.12,0-.53.06-.64.06s-.15-.06-.24-.17l-.58-.63c-.12-.14-.12-.14-.12-.2s.06-.05.09-.05c.2,0,1.08.08,1.28.08.85,0,2.37.11,4,.11h6.6c1.32,0,1.43,0,1.87-.47.29-.33.47-.45.73-.45a4.1,4.1,0,0,1,1.84,1.84c0,.41-.26.47-1.14.66a24.34,24.34,0,0,0-4.85,2.22c-.38.22-.44.25-.44,1.92,0,.75.65.75.94.75h5.05c1.2,0,1.61,0,1.87-.48.56-.94.65-1.16,1.2-1.16a5.5,5.5,0,0,1,2.69,2c0,.36-.58.36-1.55.36h-9.32c-.85,0-.85.22-.85,1.64a39.22,39.22,0,0,1-.14,4.35c-.21,1.17-1.23,1.61-2.37,1.61-.41,0-.44-.16-.56-.5-.23-.75-1.14-1.11-2.36-1.61-.35-.14-.67-.25-.67-.41s.17-.14.26-.14,2.45.33,2.92.33.85,0,.88-1.41c0-.61.06-2.59.06-3s-.09-.86-.91-.86h-5.61c-.7,0-2.69,0-3.71.08-.09,0-.5.06-.62.06s-.14-.06-.26-.17l-.55-.64c-.12-.14-.12-.14-.12-.19s.06-.06.09-.06c.2,0,1.08.09,1.28.09.85,0,2.37.11,4,.11Zm-7-16.1c.58,0,4.24,1.3,4.24,3.8a1,1,0,0,1-1,1.06c-.73,0-.85-.23-1.72-2a10.29,10.29,0,0,0-1.7-2.56c0-.05-.11-.19-.08-.25S141.27,8.33,141.33,8.33Zm10.61,3.08a1.29,1.29,0,0,1-1.09,1.42c-.9,0-1.08-1.06-1.19-1.64a14.55,14.55,0,0,0-1-3.14c0-.08-.23-.47-.14-.55C148.78,7.22,151.94,9.13,151.94,11.41Zm8-1.67c0,.25-.12.28-.64.42s-.64.25-1.78,1.36a15.21,15.21,0,0,1-3.25,2.61.12.12,0,0,1-.11-.11s1-1.81,1.14-2a14.62,14.62,0,0,0,1.49-3.63c.08-.53.11-.61.29-.61a1.25,1.25,0,0,1,.55.22C158.39,8.41,159.94,9.3,159.94,9.74Z"/></g></g></svg>